# xmcd
#
# Track frame offsets:
#	150
#	11497
#	34911
#	59554
#	91711
#	118082
#	143988
#	165590
#	195028
#	252219
#	270251
#
# Disc length: 4292 seconds
#
# Revision: 1
# Processed by: cddbd v1.4PL0 Copyright (c) Steve Scherf et al.
# Submitted via: EasyCDDAExtractor 5.1.0
#
DISCID=8710c20b
DTITLE=Stevie Ray Vaughan - Denver Arena 29/11/89
DYEAR=1989
DGENRE=Blues
TTITLE0=The house is a rockin'
TTITLE1=Tightrope
TTITLE2=Look at little sister
TTITLE3=Texas flood
TTITLE4=Leave my girl alone
TTITLE5=Wall of denial
TTITLE6=Superstition
TTITLE7=Cold shot
TTITLE8=Life without you
TTITLE9=Crossfire
TTITLE10=Voodoo chile
EXTD=
EXTT0=
EXTT1=
EXTT2=
EXTT3=
EXTT4=
EXTT5=
EXTT6=
EXTT7=
EXTT8=
EXTT9=
EXTT10=
PLAYORDER=
